<svg id="svg" version="1.1" xmlns="http://www.w3.org/2000/svg" xmlns:xlink="http://www.w3.org/1999/xlink" width="400" height="104.72501936483347" viewBox="0, 0, 400,104.72501936483347"><g id="svgg"><path xmlns="http://www.w3.org/2000/svg" id="path1" d="M217.570 4.154 C 211.729 5.091,204.087 10.061,196.170 18.068 C 194.269 19.992,193.839 19.989,193.834 18.052 C 193.833 17.557,193.067 15.465,192.540 14.519 C 189.970 9.903,186.240 7.500,181.642 7.500 C 180.176 7.500,179.833 7.556,177.833 8.122 C 175.202 8.867,172.351 10.871,170.820 13.052 C 169.769 14.549,169.600 14.551,168.848 13.083 C 166.259 8.033,162.280 5.109,157.067 4.425 C 155.984 4.283,154.294 4.167,153.312 4.167 L 151.526 4.167 149.552 5.654 C 147.835 6.949,146.000 8.625,146.000 8.899 C 146.000 8.948,145.596 9.610,145.101 10.369 C 143.840 12.307,142.804 14.598,141.727 17.833 C 141.498 18.521,140.760 20.208,140.088 21.583 C 138.137 25.571,137.032 28.554,136.163 32.174 C 135.380 35.435,135.566 35.409,133.031 32.615 C 127.286 26.282,122.480 22.062,119.431 20.673 C 115.551 18.906,110.168 20.860,106.598 25.333 C 105.323 26.931,103.167 30.230,103.167 30.584 C 103.167 30.620,102.823 31.371,102.403 32.251 C 101.366 34.426,101.224 34.371,100.656 31.582 C 99.001 23.454,96.220 18.933,90.868 15.667 C 88.195 14.037,83.860 13.629,82.083 14.840 C 81.992 14.903,81.726 15.000,81.492 15.055 C 80.801 15.219,78.773 16.739,77.934 17.721 C 76.112 19.854,75.208 21.843,74.247 25.831 C 73.952 27.056,73.687 27.753,73.361 28.164 C 73.106 28.486,72.653 29.106,72.357 29.542 C 71.639 30.595,71.545 30.567,70.134 28.875 C 67.073 25.205,63.326 22.518,58.727 20.694 C 55.579 19.446,52.860 18.777,48.417 18.159 C 47.683 18.057,46.777 17.872,46.402 17.748 C 44.376 17.077,41.625 17.353,38.917 18.498 C 38.733 18.575,38.171 18.811,37.667 19.021 C 34.368 20.398,27.954 24.438,24.833 27.104 C 24.604 27.299,23.704 28.048,22.833 28.767 C 16.670 33.857,11.617 40.801,9.886 46.556 C 9.130 49.072,8.906 49.668,8.371 50.583 C 7.226 52.545,7.026 52.939,6.384 54.501 C 5.104 57.613,4.667 59.679,4.667 62.617 C 4.667 64.646,5.097 67.115,5.692 68.498 C 6.604 70.616,7.578 72.364,8.409 73.371 L 9.333 74.491 9.333 76.071 C 9.333 84.363,16.067 90.347,27.667 92.363 C 29.312 92.649,35.715 92.657,37.125 92.375 C 37.698 92.260,38.635 92.082,39.208 91.979 C 39.781 91.876,40.813 91.642,41.500 91.459 C 42.188 91.277,42.975 91.070,43.250 91.000 C 44.039 90.799,45.389 90.338,45.706 90.161 C 45.865 90.073,46.063 90.000,46.145 90.000 C 46.467 90.000,49.659 88.408,51.083 87.538 C 51.908 87.033,52.836 86.478,53.144 86.303 C 53.975 85.831,57.294 83.028,58.782 81.540 C 61.941 78.382,64.004 75.588,66.859 70.596 C 67.666 69.185,67.913 69.171,67.772 70.545 C 67.711 71.144,67.595 71.848,67.515 72.109 C 67.367 72.592,67.188 73.431,66.759 75.667 C 64.992 84.861,67.396 92.361,73.214 95.809 C 80.462 100.105,87.914 96.000,92.305 85.292 C 92.604 84.561,93.063 84.705,93.629 85.708 C 95.478 88.981,98.700 91.114,102.625 91.663 C 108.321 92.460,113.744 87.698,115.339 80.500 C 115.783 78.495,115.984 77.994,116.768 76.935 C 117.890 75.420,117.845 75.395,120.110 78.791 C 129.869 93.421,136.136 97.754,144.402 95.587 C 150.262 94.051,153.769 90.369,155.996 83.417 C 156.706 81.198,157.047 80.429,158.369 78.057 C 158.786 77.309,159.259 76.353,159.419 75.934 C 159.946 74.555,160.317 74.603,160.570 76.083 C 160.743 77.098,161.524 80.228,161.652 80.417 C 161.713 80.508,161.865 80.883,161.989 81.250 C 163.961 87.074,169.478 91.379,176.207 92.344 C 178.118 92.618,180.768 92.065,182.372 91.057 C 182.714 90.842,183.054 90.667,183.128 90.667 C 183.925 90.667,186.574 86.768,187.318 84.500 C 187.954 82.562,188.000 82.398,188.000 82.038 C 188.000 81.122,188.527 79.747,189.205 78.895 C 189.596 78.402,190.156 77.606,190.448 77.125 C 191.534 75.337,191.260 75.260,193.247 77.917 C 194.772 79.956,197.505 83.281,198.520 84.333 C 198.830 84.654,199.274 85.142,199.506 85.417 C 200.614 86.727,203.595 89.271,205.641 90.653 C 209.879 93.515,214.433 94.118,218.250 92.323 C 218.800 92.064,219.737 91.693,220.333 91.499 C 222.153 90.905,224.466 89.189,225.831 87.420 C 226.712 86.277,226.917 86.281,227.750 87.456 C 229.328 89.681,232.468 92.445,234.917 93.763 C 235.558 94.109,236.271 94.516,236.500 94.669 C 237.378 95.255,242.049 96.954,243.750 97.306 C 246.883 97.956,253.905 97.789,256.583 97.003 C 256.858 96.922,257.421 96.766,257.833 96.657 C 260.845 95.858,264.577 94.292,267.333 92.670 C 268.226 92.145,270.833 90.375,271.000 90.180 C 271.046 90.127,271.458 89.787,271.917 89.424 C 272.375 89.062,273.275 88.262,273.917 87.647 C 274.558 87.033,275.245 86.392,275.443 86.223 C 277.005 84.891,280.958 79.406,282.528 76.394 C 283.498 74.532,283.903 74.376,284.078 75.796 C 284.835 81.918,285.502 84.840,286.995 88.578 C 287.630 90.168,288.819 92.568,289.408 93.448 C 289.641 93.797,290.010 94.347,290.228 94.670 C 294.360 100.804,302.537 102.556,312.295 99.399 C 315.124 98.483,320.656 95.078,323.096 92.750 C 323.288 92.567,323.964 91.925,324.598 91.324 C 329.391 86.780,332.038 82.513,332.837 78.045 C 333.257 75.692,333.928 75.590,334.572 77.781 C 335.139 79.707,336.412 83.158,337.018 84.414 C 337.283 84.963,337.500 85.462,337.500 85.523 C 337.500 85.729,339.410 88.754,340.331 90.007 C 347.039 99.134,360.895 100.513,374.857 93.443 C 377.480 92.115,378.537 91.521,379.426 90.877 C 379.522 90.807,379.725 90.675,379.876 90.583 C 386.025 86.843,390.299 81.210,390.821 76.158 C 390.948 74.934,390.983 74.857,392.101 73.379 C 393.088 72.074,394.018 70.480,394.510 69.250 C 395.242 67.421,395.330 63.989,394.694 62.083 C 392.957 56.875,389.278 54.762,382.013 54.802 C 378.249 54.822,378.500 54.921,378.500 53.420 L 378.500 52.197 379.267 51.473 C 382.427 48.491,383.495 44.869,382.503 40.500 L 382.181 39.083 382.851 38.126 C 384.223 36.163,384.993 33.875,384.998 31.745 C 385.000 30.461,385.054 30.346,386.224 29.132 C 390.970 24.210,390.345 16.712,384.854 12.692 C 382.983 11.323,381.234 10.531,378.583 9.852 C 376.504 9.320,361.475 9.173,358.917 9.659 C 356.959 10.032,356.515 10.132,355.250 10.489 C 346.495 12.959,339.261 20.089,337.230 28.250 C 336.820 29.897,336.244 31.348,335.675 32.164 C 334.187 34.300,332.925 37.507,332.492 40.250 C 332.034 43.158,332.028 43.173,330.859 43.945 C 328.320 45.622,326.663 47.807,325.759 50.667 C 325.107 52.729,325.314 52.569,323.149 52.687 C 320.820 52.815,319.691 53.029,318.417 53.588 C 316.751 54.319,316.706 54.259,316.305 50.816 C 315.914 47.463,316.020 44.762,316.760 39.167 C 317.181 35.979,317.352 34.542,317.681 31.427 C 317.966 28.728,317.965 17.003,317.680 15.833 C 314.594 3.182,299.004 2.332,293.228 14.500 C 292.282 16.492,291.857 17.585,291.005 20.206 C 290.567 21.556,289.167 24.275,288.782 24.526 C 288.475 24.726,288.245 24.503,287.677 23.454 C 284.617 17.807,279.297 12.315,273.305 8.618 C 270.492 6.882,265.846 5.264,261.167 4.391 C 258.735 3.937,248.716 3.884,246.917 4.316 C 241.375 5.647,238.715 7.973,236.320 13.583 C 236.154 13.973,235.402 16.685,235.256 17.423 C 234.960 18.916,234.167 19.339,234.167 18.003 C 234.167 9.648,225.967 2.807,217.570 4.154 M221.456 9.356 C 226.773 10.621,229.732 15.393,228.538 20.775 C 227.926 23.532,225.004 26.535,220.500 29.036 C 220.088 29.265,219.450 29.621,219.083 29.826 C 216.268 31.402,209.477 36.318,206.011 39.288 L 205.438 39.779 205.772 40.264 C 205.955 40.531,206.535 41.618,207.061 42.679 C 207.809 44.187,209.725 47.114,210.326 47.667 C 210.376 47.712,210.784 48.188,211.233 48.723 C 212.797 50.585,214.313 51.876,217.578 54.125 C 218.589 54.822,219.442 55.454,219.472 55.530 C 219.503 55.605,219.628 55.667,219.750 55.667 C 219.872 55.667,219.997 55.723,220.028 55.792 C 220.058 55.860,220.624 56.348,221.284 56.876 C 224.443 59.400,226.396 61.828,227.349 64.417 C 228.051 66.323,228.214 69.478,227.675 70.750 C 227.597 70.933,227.437 71.346,227.319 71.667 C 226.512 73.859,223.783 76.500,222.324 76.500 C 222.171 76.500,221.406 76.800,220.624 77.167 C 216.064 79.304,210.248 75.661,203.333 66.336 C 203.104 66.027,202.759 65.581,202.567 65.345 C 202.058 64.720,196.993 57.356,195.052 54.417 C 194.749 53.958,194.426 53.493,194.334 53.382 C 194.242 53.271,194.167 53.139,194.167 53.088 C 194.167 53.037,193.887 52.574,193.546 52.060 L 192.925 51.125 192.119 52.002 C 191.676 52.484,190.536 54.060,189.586 55.504 L 187.859 58.128 187.755 62.272 C 187.644 66.664,187.437 69.600,187.151 70.833 C 186.721 72.687,186.575 73.140,186.129 74.016 C 184.407 77.399,180.932 77.798,176.297 75.146 C 174.785 74.280,173.130 72.798,172.660 71.888 C 172.527 71.629,172.376 71.379,172.326 71.333 C 171.935 70.977,170.678 67.726,170.671 67.052 C 170.669 66.851,170.592 66.640,170.500 66.583 C 170.408 66.527,170.333 66.189,170.333 65.833 C 170.333 65.477,170.269 65.147,170.190 65.098 C 169.902 64.920,169.770 61.927,169.766 55.500 C 169.761 48.681,169.998 44.281,170.653 39.000 C 170.738 38.313,170.884 37.112,170.977 36.333 C 171.138 34.976,171.513 31.987,171.854 29.333 C 171.942 28.646,172.087 27.446,172.175 26.667 C 173.082 18.664,174.581 15.338,178.023 13.695 C 182.673 11.476,187.056 13.699,188.663 19.091 C 189.074 20.471,188.714 25.585,187.747 32.083 C 187.386 34.510,187.201 36.231,187.290 36.333 C 187.365 36.420,187.502 36.264,188.991 34.391 C 192.664 29.771,195.264 26.773,198.417 23.520 C 202.369 19.441,204.897 17.078,207.399 15.121 C 207.959 14.683,208.529 14.232,208.667 14.117 C 210.208 12.834,213.353 10.980,215.167 10.287 C 215.396 10.199,215.714 10.062,215.873 9.981 C 216.032 9.900,216.309 9.833,216.488 9.833 C 216.667 9.833,216.860 9.758,216.917 9.667 C 216.973 9.575,217.259 9.499,217.552 9.497 C 217.844 9.496,218.196 9.422,218.333 9.333 C 218.675 9.112,220.488 9.125,221.456 9.356 M258.742 9.344 C 259.755 9.441,260.921 9.636,261.333 9.777 C 261.746 9.918,262.571 10.146,263.167 10.284 C 268.916 11.618,275.188 15.581,279.100 20.351 C 281.999 23.888,284.335 27.834,285.403 31.000 C 285.542 31.412,285.781 32.087,285.933 32.500 C 286.740 34.680,286.888 36.352,286.894 43.333 C 286.898 48.982,286.804 50.808,286.435 52.250 C 286.388 52.433,286.228 53.108,286.080 53.750 C 285.932 54.392,285.742 55.142,285.659 55.417 C 285.311 56.564,284.802 58.106,284.668 58.417 C 284.589 58.600,284.323 59.270,284.078 59.906 C 283.615 61.104,282.667 63.093,282.007 64.250 C 280.688 66.561,280.415 67.000,280.298 67.000 C 280.226 67.000,280.167 67.081,280.167 67.179 C 280.167 67.553,277.531 70.776,275.761 72.567 C 265.138 83.313,249.858 85.373,239.667 77.431 C 233.558 72.671,232.770 65.943,238.000 63.196 C 239.136 62.600,239.247 62.497,239.221 62.062 C 239.205 61.799,239.109 60.308,239.008 58.750 C 238.128 45.220,238.532 28.636,239.918 21.417 C 239.970 21.142,240.095 20.467,240.195 19.917 C 241.337 13.617,243.348 10.704,247.250 9.696 C 247.617 9.601,248.179 9.451,248.500 9.362 C 249.303 9.140,256.489 9.127,258.742 9.344 M157.333 9.790 C 160.872 10.570,163.786 13.590,164.947 17.683 C 165.881 20.975,164.864 29.656,161.666 45.693 C 159.443 56.837,156.610 68.510,155.229 72.220 C 155.086 72.603,154.911 73.067,154.841 73.250 C 153.156 77.643,150.261 80.016,145.897 80.581 C 141.958 81.092,136.727 77.118,131.640 69.750 C 129.766 67.036,128.500 65.154,128.500 65.083 C 128.500 65.043,128.212 64.577,127.859 64.047 C 126.312 61.721,124.669 59.100,122.267 55.123 C 121.616 54.045,120.936 52.920,120.756 52.623 C 118.055 48.168,117.749 47.901,117.472 49.750 C 117.403 50.208,117.269 50.996,117.175 51.500 C 116.813 53.434,116.256 57.605,115.828 61.583 C 115.730 62.500,115.607 63.512,115.555 63.833 C 115.504 64.154,115.398 64.867,115.321 65.417 C 114.993 67.742,114.587 69.741,114.257 70.661 C 111.670 77.858,104.268 78.009,101.691 70.917 C 100.720 68.245,100.781 61.301,101.836 54.333 C 102.164 52.169,102.312 51.261,102.393 50.917 C 102.436 50.733,102.561 50.133,102.670 49.583 C 102.846 48.692,103.351 46.454,103.854 44.333 C 103.952 43.921,104.091 43.396,104.163 43.167 C 104.236 42.938,104.378 42.450,104.479 42.083 C 107.362 31.644,111.884 25.333,116.482 25.333 C 117.084 25.333,119.276 26.473,119.667 26.989 C 119.712 27.050,120.013 27.283,120.333 27.507 C 122.038 28.697,127.310 33.920,130.437 37.519 C 134.121 41.757,136.908 45.048,139.809 48.585 C 139.960 48.769,140.458 49.362,140.917 49.903 L 141.750 50.886 141.882 50.068 C 141.954 49.618,142.083 48.350,142.168 47.250 C 142.586 41.861,142.868 38.966,143.340 35.250 C 143.579 33.367,144.072 30.092,144.243 29.250 C 144.299 28.975,144.417 28.375,144.505 27.917 C 144.906 25.830,145.548 22.920,145.811 22.000 C 145.903 21.679,146.026 21.229,146.086 21.000 C 146.146 20.771,146.253 20.433,146.325 20.250 C 146.396 20.067,146.661 19.279,146.914 18.500 C 148.150 14.689,149.847 12.057,152.333 10.097 L 153.083 9.505 154.833 9.565 C 155.796 9.598,156.921 9.699,157.333 9.790 M308.859 11.881 C 312.191 13.511,312.718 15.213,312.616 24.000 C 312.540 30.454,312.428 32.399,311.915 36.083 C 311.100 41.933,310.946 43.701,310.947 47.167 C 310.948 48.862,311.031 50.887,311.133 51.667 C 311.508 54.548,311.846 56.884,312.349 60.083 C 312.435 60.633,312.551 61.477,312.607 61.958 C 312.727 63.000,312.832 63.020,313.917 62.207 C 318.049 59.107,320.372 58.167,323.904 58.167 C 329.096 58.167,331.831 60.474,332.121 65.098 C 332.406 69.642,329.286 74.317,322.100 80.118 C 320.328 81.548,316.491 83.577,314.000 84.401 C 302.786 88.111,296.100 82.438,293.985 67.417 C 292.585 57.477,292.531 43.621,293.849 32.667 C 294.157 30.114,294.946 25.652,295.338 24.250 C 295.414 23.975,295.568 23.412,295.680 23.000 C 298.295 13.299,303.236 9.130,308.859 11.881 M375.083 14.802 C 378.028 15.015,380.112 15.597,381.258 16.528 C 386.073 20.437,384.758 25.237,377.988 28.465 C 376.456 29.196,373.958 29.954,372.083 30.257 C 371.717 30.317,371.042 30.430,370.583 30.508 C 370.125 30.587,368.738 30.773,367.500 30.920 C 364.542 31.274,363.133 31.464,361.917 31.676 C 361.367 31.771,360.603 31.890,360.220 31.940 C 359.360 32.053,359.348 32.082,359.158 34.583 C 359.075 35.683,358.961 36.986,358.905 37.477 L 358.805 38.371 359.444 38.286 C 359.796 38.239,360.383 38.112,360.750 38.004 C 364.294 36.961,370.521 36.519,372.500 37.170 C 373.272 37.424,374.504 38.021,374.898 38.333 C 376.016 39.218,376.386 39.650,376.872 40.636 C 379.131 45.224,375.178 49.727,367.333 51.502 C 367.012 51.575,366.337 51.744,365.833 51.878 C 364.888 52.129,363.044 52.553,361.583 52.856 C 361.125 52.951,360.479 53.097,360.147 53.181 C 359.816 53.265,359.337 53.333,359.083 53.333 L 358.622 53.333 358.735 55.625 C 358.797 56.885,358.917 58.517,359.001 59.250 C 359.482 63.473,359.562 63.982,359.722 63.883 C 359.815 63.825,360.159 63.723,360.487 63.655 C 360.815 63.588,361.496 63.422,362.000 63.287 C 362.504 63.153,363.517 62.914,364.250 62.756 C 364.983 62.599,365.756 62.402,365.966 62.318 C 366.177 62.235,366.593 62.167,366.891 62.167 C 367.189 62.167,367.505 62.099,367.592 62.017 C 367.679 61.935,368.050 61.826,368.417 61.776 C 368.783 61.725,369.496 61.606,370.000 61.510 C 370.504 61.415,371.367 61.267,371.917 61.181 C 372.467 61.096,373.142 60.980,373.417 60.923 C 373.692 60.867,374.667 60.745,375.583 60.652 C 376.500 60.559,377.962 60.406,378.833 60.312 C 386.357 59.504,389.751 61.067,389.735 65.333 C 389.725 67.741,388.824 69.400,386.022 72.170 C 381.158 76.978,374.338 80.451,366.667 82.027 C 362.301 82.924,355.996 82.073,352.704 80.142 C 349.084 78.020,345.214 71.634,343.830 65.500 C 343.758 65.179,343.587 64.504,343.451 64.000 C 343.315 63.496,342.999 61.996,342.748 60.667 C 342.168 57.590,342.057 57.276,341.599 57.412 C 335.383 59.271,329.088 56.370,330.687 52.383 C 331.835 49.520,332.431 48.925,335.767 47.305 C 337.246 46.587,338.560 46.001,338.686 46.002 C 338.813 46.003,339.377 45.797,339.941 45.544 L 340.965 45.083 341.076 43.333 C 341.138 42.371,341.263 40.121,341.355 38.333 C 341.652 32.525,342.033 29.877,342.842 28.000 C 346.236 20.126,353.646 14.915,361.583 14.818 C 362.408 14.808,363.271 14.739,363.500 14.664 C 364.039 14.488,372.061 14.583,375.083 14.802 M88.019 20.115 C 91.461 21.835,93.388 24.803,95.193 31.167 C 96.712 36.520,96.846 47.834,95.506 57.500 C 95.052 60.770,94.750 62.584,94.406 64.083 C 94.260 64.725,94.076 65.550,93.999 65.917 C 93.922 66.283,93.773 66.883,93.668 67.250 C 93.563 67.617,93.439 68.104,93.393 68.333 C 93.346 68.563,93.249 68.900,93.177 69.083 C 93.104 69.267,92.774 70.260,92.443 71.291 C 89.786 79.568,85.160 83.494,80.718 81.239 C 76.278 78.986,74.921 73.882,76.488 65.333 C 76.646 64.473,77.066 62.550,77.597 60.250 C 78.616 55.846,78.721 54.840,78.603 50.640 C 78.192 35.971,78.315 32.075,79.348 27.053 C 80.641 20.767,83.979 18.096,88.019 20.115 M44.617 22.687 C 44.874 22.790,45.233 22.936,45.417 23.010 C 45.786 23.161,46.507 23.282,48.250 23.487 C 49.793 23.668,51.316 23.952,52.474 24.275 C 52.992 24.419,53.624 24.575,53.877 24.621 C 54.130 24.667,54.378 24.771,54.429 24.853 C 54.479 24.934,54.666 25.000,54.845 25.000 C 55.025 25.000,55.301 25.068,55.461 25.151 C 55.620 25.234,56.462 25.585,57.333 25.931 C 68.361 30.315,72.665 41.196,68.353 53.791 C 67.756 55.535,66.208 58.808,65.495 59.833 C 65.336 60.063,65.040 60.547,64.837 60.909 C 62.227 65.568,56.263 71.053,50.750 73.865 C 47.778 75.381,45.167 76.185,40.597 76.992 C 39.318 77.218,34.449 77.218,33.304 76.991 C 32.816 76.895,32.042 76.741,31.583 76.651 C 22.510 74.857,18.308 70.441,19.253 63.690 C 19.399 62.648,19.495 61.776,19.467 61.751 C 19.440 61.727,18.985 61.433,18.458 61.098 C 14.829 58.794,13.463 52.688,15.359 47.250 C 15.985 45.454,17.962 41.675,18.353 41.528 C 18.434 41.497,18.500 41.385,18.501 41.278 C 18.501 41.171,18.707 40.858,18.959 40.583 C 19.211 40.307,19.712 39.707,20.073 39.249 C 20.761 38.377,25.535 33.556,26.842 32.413 C 28.192 31.234,28.572 30.918,29.250 30.414 C 29.617 30.142,29.954 29.876,30.000 29.824 C 30.217 29.576,33.677 27.167,33.815 27.167 C 33.901 27.167,33.997 27.110,34.028 27.042 C 34.239 26.567,39.699 23.765,41.583 23.164 C 42.225 22.960,42.900 22.732,43.083 22.657 C 43.564 22.463,44.084 22.473,44.617 22.687 M230.437 29.688 C 229.652 32.951,229.034 40.787,228.891 49.298 C 228.830 52.900,228.718 55.885,228.641 55.932 C 228.442 56.055,228.148 55.858,227.134 54.917 C 226.205 54.055,224.921 52.945,223.732 51.975 C 223.010 51.386,221.273 50.141,219.234 48.749 C 217.929 47.859,215.998 46.079,216.003 45.770 C 216.008 45.353,216.353 45.111,218.828 43.777 C 225.426 40.224,229.833 34.584,229.833 29.695 C 229.833 29.225,229.938 28.827,230.113 28.634 C 230.583 28.115,230.713 28.539,230.437 29.688 M255.862 28.792 C 255.779 28.952,255.670 29.383,255.618 29.750 C 255.566 30.117,255.402 31.167,255.254 32.083 C 254.923 34.128,254.689 36.059,254.506 38.250 C 254.363 39.969,254.223 40.710,253.793 42.000 C 253.656 42.412,253.415 43.200,253.259 43.750 C 253.102 44.300,252.913 44.938,252.839 45.167 C 252.766 45.396,252.617 45.921,252.508 46.333 C 252.400 46.746,252.241 47.314,252.155 47.595 C 252.070 47.877,252.000 48.293,252.000 48.520 C 252.000 48.747,251.932 49.005,251.849 49.092 C 251.696 49.253,251.640 49.634,251.335 52.583 C 251.152 54.345,251.276 58.112,251.522 58.263 C 251.601 58.313,251.667 58.537,251.667 58.762 C 251.667 59.156,251.720 59.309,252.141 60.123 C 252.247 60.328,252.333 60.575,252.333 60.672 C 252.333 60.884,253.424 62.615,253.786 62.977 C 254.265 63.456,256.556 62.078,258.724 60.006 C 264.871 54.132,267.648 39.421,263.724 33.511 C 262.270 31.321,260.039 29.643,257.514 28.840 C 256.211 28.426,256.052 28.421,255.862 28.792 M43.083 39.833 C 42.900 39.912,42.543 39.982,42.289 39.988 C 42.036 39.995,41.699 40.068,41.539 40.150 C 41.380 40.233,40.736 40.507,40.108 40.759 C 36.311 42.286,32.587 45.939,30.725 49.962 C 29.856 51.838,29.818 51.945,29.368 53.685 L 29.212 54.287 30.035 54.477 C 30.488 54.581,31.036 54.667,31.253 54.667 C 31.470 54.667,31.693 54.742,31.750 54.833 C 31.807 54.925,32.000 55.000,32.179 55.000 C 32.358 55.000,32.635 55.066,32.794 55.147 C 32.953 55.228,33.271 55.368,33.500 55.457 C 34.157 55.714,37.039 57.181,37.500 57.493 C 38.518 58.184,41.265 59.326,41.917 59.331 C 43.415 59.342,46.941 57.230,48.948 55.119 C 52.865 51.000,53.215 44.912,49.724 41.652 C 48.705 40.700,48.142 40.435,45.897 39.847 C 45.093 39.636,43.560 39.628,43.083 39.833 " stroke="none" fill="#8484a4" fill-rule="evenodd"/></g></svg>